# xmcd
#
# Track frame offsets: 
#        150
#        20852
#        41630
#        62512
#        82275
#        102495
#        120675
#        140315
#        159750
#        178135
#        200912
#        217245
#        234455
#        251415
#        267452
#        288145
#        309860
#
# Disc length: 4357 seconds
#
# Revision: 4
# Processed by: cddbd v1.5.2PL0 Copyright (c) Steve Scherf et al.
# Submitted via: ExactAudioCopy v1.0b2
#
DISCID=fe110311
DTITLE=李國祥 - 李國祥精選 17 首
DYEAR=2000
DGENRE=Pop
TTITLE0=藍色 Sha La La
TTITLE1=心倦
TTITLE2=從前
TTITLE3=摘星的晚上
TTITLE4=餘情未了
TTITLE5=苦酒滿杯
TTITLE6=你好
TTITLE7=總有你鼓勵
TTITLE8=多一點溫柔
TTITLE9=最美世界=你＋我
TTITLE10=無名字的你
TTITLE11=為未來療傷
TTITLE12=答應我妳會愛上好男人
TTITLE13=我這樣愛你錯了嗎
TTITLE14=我的心停不下來
TTITLE15=情到濃時
TTITLE16=醉
EXTD=YEAR: 2000
EXTT0=
EXTT1=
EXTT2=
EXTT3=
EXTT4=
EXTT5=
EXTT6=
EXTT7=
EXTT8=
EXTT9=
EXTT10=
EXTT11=
EXTT12=
EXTT13=
EXTT14=
EXTT15=
EXTT16=
PLAYORDER=
